<svg width="102" height="30" viewBox="0 0 102 30" fill="none" xmlns="http://www.w3.org/2000/svg">
<rect x="0.500122" width="101" height="30" rx="6" fill="#F2F3F5"/>
<path d="M23.1668 9H13.8335C13.0971 9 12.5001 9.59695 12.5001 10.3333V19.6667C12.5001 20.403 13.0971 21 13.8335 21H23.1668C23.9032 21 24.5001 20.403 24.5001 19.6667V10.3333C24.5001 9.59695 23.9032 9 23.1668 9Z" stroke="#222222" stroke-width="1.5" stroke-linecap="round" stroke-linejoin="round"/>
<path d="M16.1661 13.668C16.7184 13.668 17.1661 13.2203 17.1661 12.668C17.1661 12.1157 16.7184 11.668 16.1661 11.668C15.6139 11.668 15.1661 12.1157 15.1661 12.668C15.1661 13.2203 15.6139 13.668 16.1661 13.668Z" fill="#222222" stroke="#222222" stroke-width="1.5" stroke-linecap="round" stroke-linejoin="round"/>
<path d="M24.5008 17.0013L21.1674 13.668L13.8341 21.0013" stroke="#222222" stroke-width="1.5" stroke-linecap="round" stroke-linejoin="round"/>
<path d="M37.8251 18.615H33.0251V17.565L37.6151 10.5H39.2051V17.385H40.2251V18.615H39.2051V21H37.8251V18.615ZM37.8251 17.385V12.405L34.5701 17.385H37.8251ZM44.5722 21.105C44.0722 21.105 43.6172 21.03 43.2072 20.88C42.8072 20.73 42.4622 20.525 42.1722 20.265C41.8922 19.995 41.6722 19.685 41.5122 19.335C41.3622 18.985 41.2872 18.605 41.2872 18.195H42.6822C42.6822 18.675 42.8472 19.075 43.1772 19.395C43.5172 19.715 43.9822 19.875 44.5722 19.875C45.1622 19.875 45.6222 19.715 45.9522 19.395C46.2922 19.065 46.4622 18.655 46.4622 18.165C46.4622 17.555 46.2822 17.08 45.9222 16.74C45.5622 16.39 45.0122 16.215 44.2722 16.215H43.4772V14.985H44.2722C44.9722 14.985 45.4872 14.83 45.8172 14.52C46.1472 14.21 46.3122 13.76 46.3122 13.17C46.3122 12.72 46.1572 12.35 45.8472 12.06C45.5472 11.77 45.1222 11.625 44.5722 11.625C44.0222 11.625 43.5922 11.77 43.2822 12.06C42.9822 12.34 42.8322 12.7 42.8322 13.14H41.4372C41.4372 12.76 41.5072 12.405 41.6472 12.075C41.7972 11.735 42.0072 11.445 42.2772 11.205C42.5472 10.955 42.8772 10.76 43.2672 10.62C43.6572 10.47 44.0922 10.395 44.5722 10.395C45.0522 10.395 45.4822 10.47 45.8622 10.62C46.2522 10.76 46.5822 10.955 46.8522 11.205C47.1322 11.455 47.3422 11.75 47.4822 12.09C47.6322 12.42 47.7072 12.78 47.7072 13.17C47.7072 13.77 47.5472 14.275 47.2272 14.685C46.9072 15.095 46.5222 15.385 46.0722 15.555C46.6222 15.715 47.0572 16.025 47.3772 16.485C47.6972 16.945 47.8572 17.51 47.8572 18.18C47.8572 18.59 47.7772 18.975 47.6172 19.335C47.4672 19.685 47.2472 19.995 46.9572 20.265C46.6772 20.525 46.3322 20.73 45.9222 20.88C45.5222 21.03 45.0722 21.105 44.5722 21.105ZM53.4193 13.05H59.5693V21H58.2343V14.205H54.7543V21H53.4193V13.05ZM64.5878 21.105C63.5878 21.105 62.7928 20.8 62.2028 20.19C61.6128 19.57 61.3178 18.68 61.3178 17.52V16.38C61.3178 15.84 61.3928 15.36 61.5428 14.94C61.7028 14.51 61.9228 14.15 62.2028 13.86C62.4928 13.56 62.8378 13.335 63.2378 13.185C63.6378 13.025 64.0878 12.945 64.5878 12.945C65.0878 12.945 65.5378 13.025 65.9378 13.185C66.3378 13.335 66.6778 13.56 66.9578 13.86C67.2478 14.15 67.4678 14.51 67.6178 14.94C67.7778 15.36 67.8578 15.84 67.8578 16.38V17.52C67.8578 18.68 67.5628 19.57 66.9728 20.19C66.3828 20.8 65.5878 21.105 64.5878 21.105ZM64.5878 19.935C65.1878 19.935 65.6628 19.745 66.0128 19.365C66.3628 18.975 66.5378 18.36 66.5378 17.52V16.38C66.5378 15.62 66.3628 15.055 66.0128 14.685C65.6628 14.305 65.1878 14.115 64.5878 14.115C63.9878 14.115 63.5128 14.305 63.1628 14.685C62.8128 15.055 62.6378 15.62 62.6378 16.38V17.52C62.6378 18.36 62.8128 18.975 63.1628 19.365C63.5128 19.745 63.9878 19.935 64.5878 19.935ZM72.4634 21.105C71.9834 21.105 71.5434 21.03 71.1434 20.88C70.7534 20.72 70.4184 20.49 70.1384 20.19C69.8684 19.88 69.6534 19.505 69.4934 19.065C69.3434 18.615 69.2684 18.1 69.2684 17.52V16.38C69.2684 15.84 69.3434 15.36 69.4934 14.94C69.6534 14.51 69.8684 14.15 70.1384 13.86C70.4184 13.56 70.7534 13.335 71.1434 13.185C71.5434 13.025 71.9834 12.945 72.4634 12.945C72.8634 12.945 73.2384 13 73.5884 13.11C73.9484 13.22 74.2634 13.38 74.5334 13.59C74.8034 13.8 75.0234 14.055 75.1934 14.355C75.3634 14.645 75.4684 14.97 75.5084 15.33H74.1734C74.0934 15 73.9184 14.715 73.6484 14.475C73.3784 14.235 72.9834 14.115 72.4634 14.115C71.8934 14.115 71.4384 14.305 71.0984 14.685C70.7584 15.055 70.5884 15.62 70.5884 16.38V17.52C70.5884 18.37 70.7584 18.985 71.0984 19.365C71.4384 19.745 71.8934 19.935 72.4634 19.935C72.9834 19.935 73.3784 19.81 73.6484 19.56C73.9184 19.31 74.0884 19.03 74.1584 18.72H75.5084C75.3284 19.51 74.9784 20.105 74.4584 20.505C73.9484 20.905 73.2834 21.105 72.4634 21.105ZM79.0093 14.205H76.4743V13.05H82.8643V14.205H80.3293V21H79.0093V14.205ZM85.9237 21.09C85.1937 21.09 84.6237 20.89 84.2137 20.49C83.8037 20.08 83.5987 19.51 83.5987 18.78C83.5987 18.01 83.8187 17.425 84.2587 17.025C84.6987 16.615 85.4037 16.41 86.3737 16.41H88.2637V15.645C88.2637 15.105 88.1387 14.715 87.8887 14.475C87.6487 14.225 87.2737 14.1 86.7637 14.1C86.5037 14.1 86.2837 14.13 86.1037 14.19C85.9237 14.24 85.7787 14.315 85.6687 14.415C85.5587 14.505 85.4737 14.61 85.4137 14.73C85.3537 14.85 85.3187 14.97 85.3087 15.09H84.0187C84.0487 14.78 84.1187 14.495 84.2287 14.235C84.3387 13.975 84.5037 13.75 84.7237 13.56C84.9437 13.37 85.2187 13.22 85.5487 13.11C85.8887 13 86.2987 12.945 86.7787 12.945C87.7387 12.945 88.4437 13.17 88.8937 13.62C89.3437 14.06 89.5687 14.735 89.5687 15.645V21H88.4137V19.68C88.3137 19.85 88.1987 20.02 88.0687 20.19C87.9387 20.36 87.7737 20.515 87.5737 20.655C87.3837 20.785 87.1537 20.89 86.8837 20.97C86.6137 21.05 86.2937 21.09 85.9237 21.09ZM86.2987 19.95C86.8987 19.95 87.3737 19.775 87.7237 19.425C88.0837 19.065 88.2637 18.58 88.2637 17.97V17.49H86.4337C85.8637 17.49 85.4637 17.595 85.2337 17.805C85.0137 18.005 84.9037 18.325 84.9037 18.765C84.9037 19.115 85.0187 19.4 85.2487 19.62C85.4787 19.84 85.8287 19.95 86.2987 19.95Z" fill="#222222"/>
</svg>
